<svg xmlns="http://www.w3.org/2000/svg" viewBox="0 0 64 64" role="img" aria-label="HiusGo bus logo">
  <defs>
    <linearGradient id="busBody" x1="8" y1="12" x2="56" y2="54" gradientUnits="userSpaceOnUse">
      <stop offset="0" stop-color="#2563EB"/>
      <stop offset="0.42" stop-color="#1F9D8F"/>
      <stop offset="1" stop-color="#10B981"/>
    </linearGradient>
    <linearGradient id="busAccent" x1="16" y1="47" x2="52" y2="47" gradientUnits="userSpaceOnUse">
      <stop offset="0" stop-color="#7FE0C8"/>
      <stop offset="1" stop-color="#10B981"/>
    </linearGradient>
    <filter id="softShadow" x="-20%" y="-20%" width="140%" height="150%">
      <feDropShadow dx="0" dy="5" stdDeviation="4" flood-color="#0F766E" flood-opacity="0.22"/>
    </filter>
  </defs>
  <rect width="64" height="64" rx="16" fill="#F3F4F6"/>
  <path
    d="M16 18.5C16 14.9 18.9 12 22.5 12h19C49.5 12 56 18.5 56 26.5V42c0 3.3-2.7 6-6 6H14c-3.3 0-6-2.7-6-6V26.5C8 22.1 11.6 18.5 16 18.5Z"
    fill="url(#busBody)"
    filter="url(#softShadow)"
  />
  <path d="M15 25c0-2.2 1.8-4 4-4h25c2.8 0 5.3 1.5 6.7 3.8L53 29H15v-4Z" fill="#E5F7F3" opacity="0.92"/>
  <path d="M17 35h30c2.8 0 5 2.2 5 5v1H12v-1c0-2.8 2.2-5 5-5Z" fill="url(#busAccent)" opacity="0.96"/>
  <circle cx="19" cy="48" r="5" fill="#0D2530"/>
  <circle cx="45" cy="48" r="5" fill="#0D2530"/>
  <circle cx="19" cy="48" r="2" fill="#7FE0C8"/>
  <circle cx="45" cy="48" r="2" fill="#7FE0C8"/>
  <path d="M13 31h40" stroke="#10B981" stroke-width="2.5" stroke-linecap="round" opacity="0.8"/>
  <circle cx="51" cy="38" r="2.2" fill="#D1FAE5"/>
</svg>
